HIERARCHY
ROOT Hips
{
	OFFSET 0.000000 0.000000 0.000000 
	CHANNELS 6 Xposition Yposition Zposition Zrotation Yrotation Xrotation
	JOINT LeftUpLeg
	{
		OFFSET 1.363060 -1.794630 0.839290 
		CHANNELS 3 Zrotation Yrotation Xrotation
		JOINT LeftLeg
		{
			OFFSET 2.448110 -6.726130 0.000000 
			CHANNELS 3 Zrotation Yrotation Xrotation
			JOINT LeftFoot
			{
				OFFSET 2.562200 -7.039590 0.000000 
				CHANNELS 3 Zrotation Yrotation Xrotation
				JOINT LeftToeBase
				{
					OFFSET 0.157640 -0.433110 2.322550 
					CHANNELS 3 Zrotation Yrotation Xrotation
					End Site
					{
						OFFSET 0.000000 0.000000 0.000000 
					}
				}
			}
		}
	}
	JOINT RightUpLeg
	{
		OFFSET -1.305520 -1.794630 0.839290 
		CHANNELS 3 Zrotation Yrotation Xrotation
		JOINT RightLeg
		{
			OFFSET -2.542530 -6.985550 0.000000 
			CHANNELS 3 Zrotation Yrotation Xrotation
			JOINT RightFoot
			{
				OFFSET -2.568260 -7.056230 0.000000 
				CHANNELS 3 Zrotation Yrotation Xrotation
				JOINT RightToeBase
				{
					OFFSET -0.164730 -0.452590 2.363150 
					CHANNELS 3 Zrotation Yrotation Xrotation
					End Site
					{
						OFFSET 0.000000 0.000000 0.000000 
					}
				}
			}
		}
	}
	JOINT Spine
	{
		OFFSET 0.028270 2.035590 -0.193380 
		CHANNELS 3 Zrotation Yrotation Xrotation
		JOINT Spine1
		{
			OFFSET 0.056720 2.048850 -0.042750 
			CHANNELS 3 Zrotation Yrotation Xrotation
			JOINT Neck1
			{
				OFFSET -0.054170 1.746240 0.172020 
				CHANNELS 3 Zrotation Yrotation Xrotation
				JOINT Head
				{
					OFFSET 0.104070 1.761360 -0.123970 
					CHANNELS 3 Zrotation Yrotation Xrotation
					End Site
					{
						OFFSET 0.000000 0.000000 0.000000 
					}
				}
			}
			JOINT LeftArm
			{
				OFFSET 3.362410 1.200890 -0.311210 
				CHANNELS 3 Zrotation Yrotation Xrotation
				JOINT LeftForeArm
				{
					OFFSET 4.983000 -0.000000 -0.000000 
					CHANNELS 3 Zrotation Yrotation Xrotation
					JOINT LeftHand
					{
						OFFSET 3.483560 -0.000000 -0.000000 
						CHANNELS 3 Zrotation Yrotation Xrotation
						JOINT LeftHandIndex1
						{
							OFFSET 0.715260 -0.000000 -0.000000 
							CHANNELS 3 Zrotation Yrotation Xrotation
							End Site
							{
								OFFSET 0.000000 0.000000 0.000000 
							}
						}
					}
				}
			}
			JOINT RightArm
			{
				OFFSET -3.136600 1.374050 -0.404650 
				CHANNELS 3 Zrotation Yrotation Xrotation
				JOINT RightForeArm
				{
					OFFSET -5.241900 -0.000000 -0.000000 
					CHANNELS 3 Zrotation Yrotation Xrotation
					JOINT RightHand
					{
						OFFSET -3.444170 -0.000000 -0.000000 
						CHANNELS 3 Zrotation Yrotation Xrotation
						JOINT RightHandIndex1
						{
							OFFSET -0.622530 -0.000000 -0.000000 
							CHANNELS 3 Zrotation Yrotation Xrotation
							End Site
							{
								OFFSET 0.000000 0.000000 0.000000 
							}
						}
					}
				}
			}
		}
	}
}
MOTION
Frames: 7
Frame Time: 0.041667
0.573953 17.873140 -31.043949 -3.634667 3.743639 3.107547 -9.711475 -2.869573 -9.114759 0.299598 8.286532 21.350780 -3.635789 15.914784 -2.257759 0.078600 -1.808400 -4.976300 16.465455 0.660953 -9.531849 -1.152344 -8.913701 23.313332 4.215077 -19.146804 -5.987918 -0.030700 1.130700 -3.108400 1.285338 -7.026748 -2.076974 -3.074608 -3.667066 -3.405463 -0.439477 9.026788 16.524083 -2.593100 4.533700 12.152100 -92.025184 8.582777 7.831580 17.867692 -27.330854 -3.868084 0.234447 0.512640 -9.270236 -7.125000 0.000000 0.000000 87.495496 -4.163672 21.524434 -14.928671 24.278188 -3.011893 0.018422 -0.602446 -2.736533 7.125000 0.000000 0.000000 
0.571378 17.873537 -31.046325 -3.684578 3.748696 3.146774 -9.664219 -2.889275 -9.148895 0.303196 8.282967 21.350424 -3.658295 15.990631 -2.201741 0.081500 -1.840900 -5.066300 16.514125 0.706067 -9.549409 -1.147371 -8.922782 23.304374 4.220033 -19.175835 -5.974957 -0.030400 1.126400 -3.096500 3.007785 -2.170453 -1.419729 1.243019 -1.126496 -1.693197 -0.734074 2.392990 16.116529 -3.487800 1.397200 11.373000 -92.112008 5.934686 17.746950 16.826494 -26.063384 -3.470894 0.247461 0.491654 -7.956726 -7.125000 0.000000 0.000000 86.811362 -5.323574 11.591803 -15.721042 25.231368 -3.330898 0.043931 -0.618415 -3.873782 7.125000 0.000000 0.000000 
0.570982 17.873140 -31.045236 -3.716496 3.796904 3.172499 -9.668381 -2.850955 -9.099809 0.302572 8.280293 21.352196 -3.636735 15.906554 -2.264363 0.077300 -1.793600 -4.935600 16.528620 0.643864 -9.560274 -1.143789 -8.934725 23.307680 4.207196 -19.138281 -5.994126 -0.031000 1.136200 -3.123700 4.858762 2.972596 -1.044410 6.110364 1.533270 -1.544123 -1.115347 -4.526148 15.801479 -4.269200 -1.891100 10.652500 -92.886531 3.723515 28.608384 15.805409 -24.796796 -3.101929 0.264229 0.463795 -6.913240 -7.125000 0.000000 0.000000 86.321974 -7.142554 1.267703 -16.607174 26.253540 -3.694126 0.065725 -0.632641 -5.415621 7.125000 0.000000 0.000000 
0.569596 17.873240 -31.045137 -3.677385 3.821298 3.180807 -9.687198 -2.887800 -9.123724 0.300566 8.278876 21.343245 -3.639297 15.920596 -2.229835 0.079400 -1.817500 -5.001600 16.497615 0.634779 -9.583083 -1.146349 -8.932369 23.315032 4.210933 -19.146061 -6.024081 -0.030200 1.121400 -3.082900 4.007667 1.459899 -1.144783 4.125367 0.735288 -1.459108 -0.780371 -2.657161 16.043718 -4.035600 -0.943000 10.926200 -92.104413 4.310083 25.576467 16.134885 -25.189747 -3.214811 0.255922 0.469251 -7.389975 -7.125000 0.000000 0.000000 86.927155 -6.467982 4.042533 -16.321927 25.946154 -3.577375 0.050653 -0.622037 -4.733909 7.125000 0.000000 0.000000 
0.568209 17.873339 -31.045335 -3.668213 3.848779 3.197868 -9.695159 -2.898149 -9.129728 0.299486 8.277425 21.338722 -3.636309 15.910313 -2.221963 0.079500 -1.819100 -5.005900 16.487806 0.615712 -9.603321 -1.146920 -8.935878 23.322532 4.209555 -19.140885 -6.043839 -0.029800 1.114700 -3.064500 4.225213 2.521255 -1.113220 4.852104 1.284221 -1.556493 -0.762415 -4.159800 16.060380 -4.183500 -1.626200 10.808900 -92.046047 3.922467 27.926998 15.971243 -24.979080 -3.155411 0.256721 0.466251 -7.347205 -7.125000 0.000000 0.000000 87.098090 -6.863689 1.868107 -16.533923 26.201405 -3.664368 0.052581 -0.622994 -4.994585 7.125000 0.000000 0.000000 
0.566526 17.873537 -31.045632 -3.649934 3.880456 3.211562 -9.707381 -2.909321 -9.135443 0.297120 8.273629 21.326776 -3.630923 15.892904 -2.206177 0.079600 -1.819500 -5.007000 16.471673 0.592880 -9.626052 -1.148577 -8.939103 23.333500 4.208607 -19.136025 -6.064382 -0.029500 1.108200 -3.046400 4.174477 2.887974 -1.134168 4.886310 1.472685 -1.634464 -0.673332 -4.738353 16.095102 -4.224400 -1.867900 10.769200 -91.834153 3.835177 28.828666 15.938623 -24.929854 -3.142503 0.256290 0.466734 -7.429803 -7.125000 0.000000 0.000000 87.353597 -7.033270 1.094215 -16.641736 26.340837 -3.708979 0.051684 -0.622895 -5.073089 7.125000 0.000000 0.000000 
0.564644 17.873636 -31.046127 -3.630422 3.911736 3.220867 -9.717006 -2.918138 -9.146306 0.295584 8.271513 21.320106 -3.624394 15.871648 -2.188911 0.079700 -1.820900 -5.010900 16.457338 0.573156 -9.645324 -1.150090 -8.940898 23.341648 4.209096 -19.136003 -6.080275 -0.029200 1.102800 -3.031600 3.975016 2.859297 -1.184237 4.529602 1.454927 -1.686803 -0.560785 -4.789919 16.116345 -4.213100 -1.860900 10.757800 -91.530623 3.923573 28.894166 15.980768 -24.973071 -3.156021 0.255071 0.469282 -7.565614 -7.125000 0.000000 0.000000 87.645196 -7.083842 1.131715 -16.697525 26.423901 -3.731977 0.050065 -0.622828 -5.057885 7.125000 0.000000 0.000000 
